# Blender v2.80 (sub 75) OBJ File: ''
# www.blender.org
mtllib view cone.mtl
o Cone_Cone.001
v -1.550968 0.000000 -0.796157
v -1.550968 -0.155323 -0.780859
v -1.550968 -0.304676 -0.735553
v -1.550968 -0.442321 -0.661981
v -1.550968 -0.562968 -0.562968
v -1.550968 -0.661981 -0.442321
v -1.550968 -0.735553 -0.304676
v -1.550968 -0.780859 -0.155323
v -1.550968 -0.796157 -0.000000
v -1.550968 -0.780859 0.155322
v -1.550968 -0.735553 0.304676
v -1.550968 -0.661981 0.442321
v -1.550968 -0.562968 0.562968
v -1.550968 -0.442321 0.661980
v -1.550968 -0.304676 0.735553
v -1.550968 -0.155322 0.780859
v -1.550968 0.000000 0.796157
v -1.550968 0.155323 0.780859
v -1.550968 0.304677 0.735553
v -1.550968 0.442322 0.661980
v -1.550968 0.562969 0.562968
v -1.550968 0.661981 0.442321
v -1.550968 0.735554 0.304675
v -1.550968 0.780859 0.155322
v -1.550968 0.796157 -0.000001
v -1.550968 0.780859 -0.155323
v -1.550968 0.735553 -0.304677
v -1.550968 0.661980 -0.442322
v -1.550968 0.562967 -0.562969
v -1.550968 0.442320 -0.661981
v -1.550968 0.304675 -0.735554
v -1.550968 0.155321 -0.780860
v 1.457571 -0.099514 -0.240316
v 1.457284 -0.050741 -0.255159
v 1.457187 -0.000000 -0.260172
v 1.457284 0.050740 -0.255159
v 1.457571 0.099513 -0.240316
v 1.458037 0.144429 -0.216223
v 1.458665 0.183753 -0.183821
v 1.459428 0.215968 -0.144374
v 1.460299 0.239841 -0.099414
v 1.461242 0.254465 -0.050685
v 1.462222 0.259293 -0.000069
v 1.463201 0.254156 0.050486
v 1.465006 0.215221 0.143738
v 1.465764 0.182944 0.182876
v 1.466385 0.143683 0.214968
v 1.466846 0.098942 0.238799
v 1.467130 0.050431 0.253467
v 1.467226 0.000000 0.258418
v 1.467130 -0.050431 0.253467
v 1.466846 -0.098942 0.238799
v 1.466385 -0.143683 0.214968
v 1.465764 -0.182944 0.182876
v 1.464141 0.239270 0.099040
v 1.465006 -0.215221 0.143738
v 1.464141 -0.239270 0.099040
v 1.463201 -0.254156 0.050486
v 1.462222 -0.259293 -0.000068
v 1.461242 -0.254465 -0.050685
v 1.460299 -0.239841 -0.099414
v 1.459428 -0.215968 -0.144374
v 1.458665 -0.183753 -0.183821
v 1.458037 -0.144430 -0.216223
vt 0.750000 0.490000
vt 0.796822 0.485388
vt 0.841844 0.471731
vt 0.883337 0.449553
vt 0.919706 0.419706
vt 0.949553 0.383337
vt 0.971731 0.341844
vt 0.985388 0.296822
vt 0.990000 0.250000
vt 0.985388 0.203178
vt 0.971731 0.158156
vt 0.949553 0.116663
vt 0.919706 0.080294
vt 0.883337 0.050447
vt 0.841844 0.028269
vt 0.796822 0.014612
vt 0.750000 0.010000
vt 0.703178 0.014612
vt 0.658156 0.028269
vt 0.616663 0.050447
vt 0.580294 0.080294
vt 0.550447 0.116663
vt 0.528269 0.158156
vt 0.514611 0.203179
vt 0.510000 0.250000
vt 0.514612 0.296822
vt 0.528269 0.341844
vt 0.550447 0.383337
vt 0.580295 0.419706
vt 0.616663 0.449553
vt 0.658156 0.471731
vt 0.703179 0.485389
vt 0.383337 0.449553
vt 0.290529 0.310657
vt 0.301564 0.301564
vt 0.419706 0.419706
vt 0.310604 0.290495
vt 0.449553 0.383337
vt 0.317304 0.277878
vt 0.471731 0.341844
vt 0.321407 0.264204
vt 0.485388 0.296822
vt 0.322762 0.250000
vt 0.490000 0.250000
vt 0.321321 0.235813
vt 0.485388 0.203178
vt 0.317143 0.222188
vt 0.471731 0.158156
vt 0.310395 0.209646
vt 0.449553 0.116663
vt 0.301337 0.198663
vt 0.419706 0.080294
vt 0.290320 0.189657
vt 0.383337 0.050447
vt 0.277765 0.182970
vt 0.341844 0.028269
vt 0.264152 0.178854
vt 0.296822 0.014612
vt 0.250000 0.177464
vt 0.250000 0.010000
vt 0.235848 0.178854
vt 0.203178 0.014612
vt 0.222235 0.182970
vt 0.158156 0.028269
vt 0.209680 0.189657
vt 0.116663 0.050447
vt 0.198663 0.198663
vt 0.080294 0.080294
vt 0.189605 0.209646
vt 0.050447 0.116663
vt 0.182857 0.222188
vt 0.028269 0.158156
vt 0.178679 0.235814
vt 0.014611 0.203179
vt 0.177238 0.250000
vt 0.010000 0.250000
vt 0.178593 0.264204
vt 0.014612 0.296822
vt 0.182696 0.277878
vt 0.028269 0.341844
vt 0.189396 0.290495
vt 0.050447 0.383337
vt 0.198436 0.301564
vt 0.080295 0.419706
vt 0.209471 0.310657
vt 0.116663 0.449553
vt 0.222075 0.317418
vt 0.158156 0.471731
vt 0.235761 0.321583
vt 0.203179 0.485389
vt 0.250000 0.322990
vt 0.250000 0.490000
vt 0.264239 0.321583
vt 0.296822 0.485388
vt 0.277925 0.317418
vt 0.341844 0.471731
vn -1.0000 -0.0000 0.0000
vn 0.1746 -0.6246 -0.7612
vn 0.1746 -0.7611 -0.6247
vn 0.1746 -0.8683 -0.4642
vn 0.1746 -0.9422 -0.2859
vn 0.1746 -0.9799 -0.0966
vn 0.1746 -0.9799 0.0964
vn 0.1746 -0.9423 0.2858
vn 0.1746 -0.8684 0.4641
vn 0.1746 -0.7612 0.6246
vn 0.1746 -0.6247 0.7611
vn 0.1746 -0.4642 0.8684
vn 0.1746 -0.2858 0.9422
vn 0.1746 -0.0965 0.9799
vn 0.1746 0.0965 0.9799
vn 0.1746 0.2858 0.9422
vn 0.1746 0.4642 0.8684
vn 0.1746 0.6247 0.7611
vn 0.1746 0.7612 0.6246
vn 0.1746 0.8684 0.4641
vn 0.1746 0.9423 0.2858
vn 0.1746 0.9799 0.0964
vn 0.1746 0.9799 -0.0966
vn 0.1746 0.9422 -0.2859
vn 0.1746 0.8683 -0.4642
vn 0.1746 0.7611 -0.6247
vn 0.1746 0.6246 -0.7612
vn 0.1746 0.4641 -0.8684
vn 0.1746 0.2858 -0.9422
vn 0.1746 0.0965 -0.9799
vn 0.1746 -0.0965 -0.9799
vn 0.1746 -0.2858 -0.9422
vn 0.1746 -0.4641 -0.8684
vn -0.9998 -0.0000 0.0194
usemtl None
s off
f 1/1/1 2/2/1 3/3/1 4/4/1 5/5/1 6/6/1 7/7/1 8/8/1 9/9/1 10/10/1 11/11/1 12/12/1 13/13/1 14/14/1 15/15/1 16/16/1 17/17/1 18/18/1 19/19/1 20/20/1 21/21/1 22/22/1 23/23/1 24/24/1 25/25/1 26/26/1 27/27/1 28/28/1 29/29/1 30/30/1 31/31/1 32/32/1
f 4/33/2 64/34/2 63/35/2 5/36/2
f 5/36/3 63/35/3 62/37/3 6/38/3
f 6/38/4 62/37/4 61/39/4 7/40/4
f 7/40/5 61/39/5 60/41/5 8/42/5
f 8/42/6 60/41/6 59/43/6 9/44/6
f 9/44/7 59/43/7 58/45/7 10/46/7
f 10/46/8 58/45/8 57/47/8 11/48/8
f 11/48/9 57/47/9 56/49/9 12/50/9
f 12/50/10 56/49/10 54/51/10 13/52/10
f 13/52/11 54/51/11 53/53/11 14/54/11
f 14/54/12 53/53/12 52/55/12 15/56/12
f 15/56/13 52/55/13 51/57/13 16/58/13
f 16/58/14 51/57/14 50/59/14 17/60/14
f 17/60/15 50/59/15 49/61/15 18/62/15
f 18/62/16 49/61/16 48/63/16 19/64/16
f 19/64/17 48/63/17 47/65/17 20/66/17
f 20/66/18 47/65/18 46/67/18 21/68/18
f 21/68/19 46/67/19 45/69/19 22/70/19
f 22/70/20 45/69/20 55/71/20 23/72/20
f 23/72/21 55/71/21 44/73/21 24/74/21
f 24/74/22 44/73/22 43/75/22 25/76/22
f 25/76/23 43/75/23 42/77/23 26/78/23
f 26/78/24 42/77/24 41/79/24 27/80/24
f 27/80/25 41/79/25 40/81/25 28/82/25
f 28/82/26 40/81/26 39/83/26 29/84/26
f 29/84/27 39/83/27 38/85/27 30/86/27
f 30/86/28 38/85/28 37/87/28 31/88/28
f 31/88/29 37/87/29 36/89/29 32/90/29
f 32/90/30 36/89/30 35/91/30 1/92/30
f 1/92/31 35/91/31 34/93/31 2/94/31
f 2/94/32 34/93/32 33/95/32 3/96/32
f 3/96/33 33/95/33 64/34/33 4/33/33
f 37/87/34 36/89/34 35/91/34 34/93/34 33/95/34 64/34/34 63/35/34 62/37/34 61/39/34 60/41/34 59/43/34 58/45/34 57/47/34 56/49/34 54/51/34 53/53/34 52/55/34 51/57/34 50/59/34 49/61/34 48/63/34 47/65/34 46/67/34 45/69/34 55/71/34 44/73/34 43/75/34 42/77/34 41/79/34 40/81/34 39/83/34 38/85/34
